<?xml version="1.0" standalone="no"?>
<!DOCTYPE svg PUBLIC "-//W3C//DTD SVG 20010904//EN"
 "http://www.w3.org/TR/2001/REC-SVG-20010904/DTD/svg10.dtd">
<svg version="1.0" xmlns="http://www.w3.org/2000/svg"
 width="153.000000pt" height="153.000000pt" viewBox="0 0 153.000000 153.000000"
 preserveAspectRatio="xMidYMid meet">
<metadata>
Created by potrace 1.14, written by Peter Selinger 2001-2017
</metadata>
<g transform="translate(0.000000,153.000000) scale(0.100000,-0.100000)"
fill="#000000" stroke="none">
<path d="M640 1503 c-65 -11 -188 -58 -255 -96 -160 -92 -294 -276 -343 -469
-20 -80 -24 -250 -8 -328 27 -126 108 -277 199 -371 104 -106 230 -177 374
-209 410 -90 801 161 897 578 19 81 14 266 -8 347 -72 261 -297 479 -557 539
-53 13 -246 19 -299 9z"/>
</g>
</svg>
