<?xml version="1.0" standalone="no"?>
<!DOCTYPE svg PUBLIC "-//W3C//DTD SVG 20010904//EN"
 "http://www.w3.org/TR/2001/REC-SVG-20010904/DTD/svg10.dtd">
<svg version="1.0" xmlns="http://www.w3.org/2000/svg"
 width="231.000000pt" height="231.000000pt" viewBox="0 0 231.000000 231.000000"
 preserveAspectRatio="xMidYMid meet">
<metadata>
Created by potrace 1.14, written by Peter Selinger 2001-2017
</metadata>
<g transform="translate(0.000000,231.000000) scale(0.100000,-0.100000)"
fill="#000000" stroke="none">
<path d="M803 2251 c-79 -20 -144 -77 -203 -176 -13 -22 -51 -72 -84 -111 -34
-39 -68 -80 -76 -90 -74 -93 -293 -518 -332 -644 -31 -101 -53 -232 -85 -505
-33 -293 41 -435 277 -531 184 -75 312 -86 780 -71 197 7 294 19 306 38 3 5
14 9 24 9 10 0 30 14 44 31 l26 30 11 -23 c9 -20 39 -43 134 -101 11 -6 22
-15 25 -18 29 -35 332 -55 440 -29 69 16 155 56 181 83 10 11 19 33 19 49 0
38 -79 187 -146 274 -61 80 -96 112 -170 155 -75 42 -82 54 -55 87 35 43 53
93 48 128 -4 25 1 41 23 71 32 42 36 60 18 98 -10 23 -8 29 25 63 55 56 62 91
29 144 -15 24 -34 56 -42 71 -8 16 -27 41 -42 58 l-28 29 21 21 c39 39 54 89
53 179 -1 59 3 88 12 98 20 19 2 47 -52 82 -25 15 -58 46 -74 69 -16 22 -52
58 -80 80 -36 28 -63 62 -87 108 -20 38 -40 70 -44 71 -5 2 -9 8 -9 13 0 24
-60 83 -117 115 -53 30 -71 35 -130 36 -97 1 -131 -6 -161 -34 -15 -14 -39
-33 -54 -43 -26 -16 -28 -16 -50 7 -37 38 -54 48 -105 66 -52 19 -215 27 -270
13z m1029 -1727 c-3 -18 -31 -46 -106 -107 -19 -15 -40 -41 -48 -57 -11 -27
-14 -28 -30 -14 -15 15 -10 23 75 109 90 91 115 107 109 69z"/>
</g>
</svg>
